<svg xmlns="http://www.w3.org/2000/svg"> 

   <symbol viewBox="0 0 21 20" id="star">
      <path d="M10.2637 15.749L4.07617 19.499L5.7168 12.4678L0.279297 7.7334L7.45117 7.12402L10.2637 0.514648L13.0762 7.12402L20.248 7.7334L14.8105 12.4678L16.4512 19.499L10.2637 15.749Z" />
   </symbol>

   <symbol viewBox="0 0 21 20" id="star-outline">
      <path d="M10.2637 13.9209L14.0137 16.1709L13.0293 11.9053L16.3574 8.99902L11.9512 8.62402L10.2637 4.59277L8.57617 8.62402L4.16992 8.99902L7.49805 11.9053L6.51367 16.1709L10.2637 13.9209ZM20.248 7.7334L14.8105 12.4678L16.4512 19.499L10.2637 15.749L4.07617 19.499L5.7168 12.4678L0.279297 7.7334L7.45117 7.12402L10.2637 0.514648L13.0762 7.12402L20.248 7.7334Z" />
   </symbol>

   <symbol viewBox="0 0 22 22" id="instagram">
      <path d="M11 5.60938C10.0312 5.60938 9.125 5.85937 8.28125 6.35938C7.46875 6.82812 6.8125 7.48438 6.3125 8.32812C5.84375 9.14062 5.60938 10.0312 5.60938 11C5.60938 11.9688 5.84375 12.875 6.3125 13.7188C6.8125 14.5312 7.46875 15.1875 8.28125 15.6875C9.125 16.1562 10.0312 16.3906 11 16.3906C11.9688 16.3906 12.8594 16.1562 13.6719 15.6875C14.5156 15.1875 15.1719 14.5312 15.6406 13.7188C16.1406 12.875 16.3906 11.9688 16.3906 11C16.3906 10.0312 16.1406 9.14062 15.6406 8.32812C15.1719 7.48438 14.5156 6.82812 13.6719 6.35938C12.8594 5.85937 11.9688 5.60938 11 5.60938ZM11 14.5156C10.0312 14.5156 9.20312 14.1719 8.51562 13.4844C7.82812 12.7969 7.48438 11.9688 7.48438 11C7.48438 10.0312 7.82812 9.20312 8.51562 8.51562C9.20312 7.82812 10.0312 7.48438 11 7.48438C11.9688 7.48438 12.7969 7.82812 13.4844 8.51562C14.1719 9.20312 14.5156 10.0312 14.5156 11C14.5156 11.9688 14.1719 12.7969 13.4844 13.4844C12.7969 14.1719 11.9688 14.5156 11 14.5156ZM17.8906 5.375C17.8594 5.71875 17.7188 6.01563 17.4688 6.26562C17.25 6.51562 16.9688 6.64062 16.625 6.64062C16.2812 6.64062 15.9844 6.51562 15.7344 6.26562C15.4844 6.01563 15.3594 5.71875 15.3594 5.375C15.3594 5.03125 15.4844 4.73437 15.7344 4.48438C15.9844 4.23438 16.2812 4.10938 16.625 4.10938C16.9688 4.10938 17.2656 4.23438 17.5156 4.48438C17.7656 4.73437 17.8906 5.03125 17.8906 5.375ZM21.4531 6.64062C21.3906 5.73438 21.25 4.95312 21.0312 4.29688C20.75 3.51562 20.3125 2.84375 19.7188 2.28125C19.1562 1.6875 18.4844 1.25 17.7031 0.96875C17.0469 0.75 16.2656 0.625 15.3594 0.59375C14.4844 0.53125 13.0312 0.5 11 0.5C8.96875 0.5 7.5 0.53125 6.59375 0.59375C5.71875 0.625 4.95312 0.75 4.29688 0.96875C3.51562 1.25 2.82812 1.6875 2.23438 2.28125C1.67188 2.84375 1.25 3.51562 0.96875 4.29688C0.75 4.95312 0.609375 5.73438 0.546875 6.64062C0.515625 7.51562 0.5 8.96875 0.5 11C0.5 13.0312 0.515625 14.5 0.546875 15.4062C0.609375 16.2812 0.75 17.0469 0.96875 17.7031C1.25 18.4844 1.67188 19.1719 2.23438 19.7656C2.82812 20.3281 3.51562 20.7344 4.29688 20.9844C4.95312 21.2344 5.71875 21.375 6.59375 21.4062C7.5 21.4688 8.96875 21.5 11 21.5C13.0312 21.5 14.4844 21.4688 15.3594 21.4062C16.2656 21.375 17.0469 21.25 17.7031 21.0312C18.4844 20.75 19.1562 20.3281 19.7188 19.7656C20.3125 19.1719 20.75 18.4844 21.0312 17.7031C21.25 17.0469 21.375 16.2812 21.4062 15.4062C21.4688 14.5 21.5 13.0312 21.5 11C21.5 8.96875 21.4844 7.51562 21.4531 6.64062ZM19.2031 17.1875C18.8281 18.125 18.1562 18.7969 17.1875 19.2031C16.6875 19.3906 15.8438 19.5156 14.6562 19.5781C14 19.6094 13.0312 19.625 11.75 19.625H10.25C9 19.625 8.03125 19.6094 7.34375 19.5781C6.1875 19.5156 5.34375 19.3906 4.8125 19.2031C3.875 18.8281 3.20312 18.1562 2.79688 17.1875C2.60938 16.6562 2.48438 15.8125 2.42188 14.6562C2.39062 13.9688 2.375 13 2.375 11.75V10.25C2.375 9 2.39062 8.03125 2.42188 7.34375C2.48438 6.15625 2.60938 5.3125 2.79688 4.8125C3.17188 3.84375 3.84375 3.17188 4.8125 2.79688C5.34375 2.60938 6.1875 2.48437 7.34375 2.42188C8.03125 2.39062 9 2.375 10.25 2.375H11.75C13 2.375 13.9688 2.39062 14.6562 2.42188C15.8438 2.48437 16.6875 2.60938 17.1875 2.79688C18.1562 3.17188 18.8281 3.84375 19.2031 4.8125C19.3906 5.3125 19.5156 6.15625 19.5781 7.34375C19.6094 8 19.625 8.96875 19.625 10.25V11.75C19.625 13 19.6094 13.9688 19.5781 14.6562C19.5156 15.8125 19.3906 16.6562 19.2031 17.1875Z" />
   </symbol>

   <symbol viewBox="0 0 24 20" id="twitter">
      <path d="M21.5156 5.125C21.5469 5.25 21.5625 5.45312 21.5625 5.73438C21.5625 7.98438 21.0156 10.1562 19.9219 12.25C18.7969 14.4688 17.2188 16.2344 15.1875 17.5469C12.9688 19.0156 10.4219 19.75 7.54688 19.75C4.79688 19.75 2.28125 19.0156 0 17.5469C0.34375 17.5781 0.734375 17.5938 1.17188 17.5938C3.45312 17.5938 5.5 16.8906 7.3125 15.4844C6.21875 15.4844 5.25 15.1719 4.40625 14.5469C3.59375 13.8906 3.03125 13.0781 2.71875 12.1094C3.03125 12.1406 3.32812 12.1562 3.60938 12.1562C4.04688 12.1562 4.48438 12.1094 4.92188 12.0156C3.79688 11.7656 2.85938 11.1875 2.10938 10.2812C1.35938 9.375 0.984375 8.34375 0.984375 7.1875V7.09375C1.67188 7.5 2.40625 7.71875 3.1875 7.75C2.53125 7.28125 2 6.6875 1.59375 5.96875C1.1875 5.25 0.984375 4.46875 0.984375 3.625C0.984375 2.75 1.21875 1.92188 1.6875 1.14062C2.90625 2.67188 4.39062 3.89063 6.14062 4.79688C7.92188 5.70312 9.8125 6.20312 11.8125 6.29688C11.75 5.92188 11.7188 5.54688 11.7188 5.17188C11.7188 4.29687 11.9375 3.48438 12.375 2.73438C12.8125 1.95312 13.4062 1.34375 14.1562 0.90625C14.9062 0.46875 15.7188 0.25 16.5938 0.25C17.3125 0.25 17.9688 0.390625 18.5625 0.671875C19.1875 0.953125 19.7344 1.32812 20.2031 1.79688C21.3281 1.57812 22.375 1.1875 23.3438 0.625C22.9688 1.78125 22.25 2.6875 21.1875 3.34375C22.125 3.21875 23.0625 2.95313 24 2.54688C23.3125 3.54687 22.4844 4.40625 21.5156 5.125Z" />
   </symbol>

   <symbol viewBox="0 0 22 22" id="facebook">
      <path d="M21.5 2.75V19.25C21.5 19.875 21.2812 20.4062 20.8438 20.8438C20.4062 21.2812 19.875 21.5 19.25 21.5H15.2656V13.2031H18.0781L18.5 10.0156H15.2656V8C15.2656 7.5 15.3594 7.125 15.5469 6.875C15.7969 6.59375 16.2188 6.45312 16.8125 6.45312H18.5V3.64062C17.8438 3.54688 17.0312 3.5 16.0625 3.5C14.8125 3.5 13.8125 3.875 13.0625 4.625C12.3438 5.34375 11.9844 6.35938 11.9844 7.67188V10.0156H9.125V13.2031H11.9844V21.5H2.75C2.125 21.5 1.59375 21.2812 1.15625 20.8438C0.71875 20.4062 0.5 19.875 0.5 19.25V2.75C0.5 2.125 0.71875 1.59375 1.15625 1.15625C1.59375 0.71875 2.125 0.5 2.75 0.5H19.25C19.875 0.5 20.4062 0.71875 20.8438 1.15625C21.2812 1.59375 21.5 2.125 21.5 2.75Z" />
   </symbol>

   <symbol viewBox="0 0 8 13" id="slider-arrow-next">
      <path d="M0.578125 1.90527L1.98438 0.499024L7.98438 6.49902L1.98438 12.499L0.578125 11.0928L5.17188 6.49902L0.578125 1.90527Z" />
   </symbol>

   <symbol viewBox="0 0 8 13" id="slider-arrow-prev">
      <path d="M7.42188 11.0928L6.01563 12.499L0.0156253 6.49902L6.01563 0.499024L7.42188 1.90527L2.82813 6.49902L7.42188 11.0928Z" />
   </symbol>

   <symbol viewBox="0 0 18 18" id="arrow-footer">
      <path d="M9 0.984375L17.0156 9L9 17.0156L7.59375 15.6094L13.1719 9.98438H0.984375V8.01562H13.1719L7.59375 2.39062L9 0.984375Z" />
   </symbol>
   <symbol viewBox="0 0 40 40" id="emoji-smile">
      <path d="M26.1875 29.0938C24.375 30.3438 22.3125 30.9688 20 30.9688C17.6875 30.9688 15.5938 30.3438 13.7188 29.0938C11.9062 27.7812 10.5938 26.0938 9.78125 24.0312H30.2188C29.4062 26.0938 28.0625 27.7812 26.1875 29.0938ZM15.0312 17.1875C14.4688 17.75 13.7812 18.0312 12.9688 18.0312C12.1562 18.0312 11.4375 17.75 10.8125 17.1875C10.25 16.5625 9.96875 15.8438 9.96875 15.0312C9.96875 14.2188 10.25 13.5312 10.8125 12.9688C11.4375 12.3438 12.1562 12.0312 12.9688 12.0312C13.7812 12.0312 14.4688 12.3438 15.0312 12.9688C15.6562 13.5312 15.9688 14.2188 15.9688 15.0312C15.9688 15.8438 15.6562 16.5625 15.0312 17.1875ZM29.0938 17.1875C28.5312 17.75 27.8438 18.0312 27.0312 18.0312C26.2188 18.0312 25.5 17.75 24.875 17.1875C24.3125 16.5625 24.0312 15.8438 24.0312 15.0312C24.0312 14.2188 24.3125 13.5312 24.875 12.9688C25.5 12.3438 26.2188 12.0312 27.0312 12.0312C27.8438 12.0312 28.5312 12.3438 29.0938 12.9688C29.7188 13.5312 30.0312 14.2188 30.0312 15.0312C30.0312 15.8438 29.7188 16.5625 29.0938 17.1875ZM8.65625 31.3438C11.8438 34.4688 15.625 36.0312 20 36.0312C24.375 36.0312 28.125 34.4688 31.25 31.3438C34.4375 28.1562 36.0312 24.375 36.0312 20C36.0312 15.625 34.4375 11.875 31.25 8.75C28.125 5.5625 24.375 3.96875 20 3.96875C15.625 3.96875 11.8438 5.5625 8.65625 8.75C5.53125 11.875 3.96875 15.625 3.96875 20C3.96875 24.375 5.53125 28.1562 8.65625 31.3438ZM5.84375 5.9375C9.78125 2 14.5 0.03125 20 0.03125C25.5 0.03125 30.1875 2 34.0625 5.9375C38 9.8125 39.9688 14.5 39.9688 20C39.9688 25.5 38 30.2188 34.0625 34.1562C30.1875 38.0312 25.5 39.9688 20 39.9688C14.5 39.9688 9.78125 38.0312 5.84375 34.1562C1.96875 30.2188 0.03125 25.5 0.03125 20C0.03125 14.5 1.96875 9.8125 5.84375 5.9375Z"/>
   </symbol>
   <symbol viewBox="0 0 34 43" id="emoji-fire">
      <path d="M16.4375 36.9688C19.125 36.9688 21.375 36.0625 23.1875 34.25C25.0625 32.375 26 30.0938 26 27.4062C26 24.6562 25.625 21.9688 24.875 19.3438C22.9375 21.9062 19.8438 23.625 15.5938 24.5C11.8438 25.3125 9.96875 27.375 9.96875 30.6875C9.96875 32.4375 10.5938 33.9375 11.8438 35.1875C13.0938 36.375 14.625 36.9688 16.4375 36.9688ZM20 0.3125C24 3.5625 27.1562 7.53125 29.4688 12.2188C31.8438 16.8438 33.0312 21.7812 33.0312 27.0312C33.0312 31.4062 31.4688 35.1562 28.3438 38.2812C25.2188 41.4062 21.4375 42.9688 17 42.9688C12.5625 42.9688 8.78125 41.4062 5.65625 38.2812C2.53125 35.1562 0.96875 31.4062 0.96875 27.0312C0.96875 20.2812 3.125 14.3438 7.4375 9.21875V9.96875C7.4375 12.0312 8.125 13.7813 9.5 15.2188C10.875 16.6562 12.5938 17.375 14.6562 17.375C16.6562 17.375 18.2812 16.6875 19.5312 15.3125C20.8438 13.875 21.5 12.0938 21.5 9.96875C21.5 8.71875 21.375 7.28125 21.125 5.65625C20.875 4.03125 20.625 2.75 20.375 1.8125L20 0.3125Z"/>
   </symbol>
   <symbol viewBox="0 0 36 38" id="emoji-city">
      <path d="M31.9688 26V21.9688H28.0312V26H31.9688ZM31.9688 33.9688V30.0312H28.0312V33.9688H31.9688ZM19.9688 9.96875V6.03125H16.0312V9.96875H19.9688ZM19.9688 18.0312V14H16.0312V18.0312H19.9688ZM19.9688 26V21.9688H16.0312V26H19.9688ZM19.9688 33.9688V30.0312H16.0312V33.9688H19.9688ZM7.96875 18.0312V14H4.03125V18.0312H7.96875ZM7.96875 26V21.9688H4.03125V26H7.96875ZM7.96875 33.9688V30.0312H4.03125V33.9688H7.96875ZM24 18.0312H36V38H0V9.96875H12V6.03125L18 0.03125L24 6.03125V18.0312Z"/>
   </symbol>
</svg>